<?xml version="1.0" encoding="UTF-8"?>
<svg id="Layer_3" xmlns="http://www.w3.org/2000/svg" viewBox="0 0 768.91 353.82">
  <defs>
    <style>
      .cls-1 {
        fill: #32a2b4;
      }

      .cls-2 {
        fill: #d0ce2a;
      }

      .cls-3 {
        fill: #2e9eb3;
      }
    </style>
  </defs>
  <polygon class="cls-2" points="741.28 331.05 27.22 331.05 27.22 22.76 411.22 22.76 411.22 233.07 314.23 66.31 286.52 66.31 286.52 267.71 308.29 267.71 308.29 98.47 406.76 266.72 433.48 266.72 433.48 0 0 0 0 352.82 767.51 352.82 767.51 278.1 741.28 278.1 741.28 331.05"/>
  <polygon class="cls-3" points="519.59 267.71 544.33 267.71 544.33 181.11 611.13 65.32 582.93 65.32 533.44 162.8 485.44 65.32 456.25 65.32 518.1 180.62 519.59 267.71"/>
  <polygon class="cls-3" points="617.07 267.71 645.77 267.71 690.8 183.59 739.3 267.71 767.51 267.71 706.64 162.8 767.51 65.32 738.31 65.32 692.29 149.44 648.25 65.32 619.55 65.32 674.97 163.79 617.07 267.71"/>
  <path class="cls-1" d="M164.04,65.04c-49.6,0-89.81,45.76-89.81,102.22s40.21,102.22,89.81,102.22,89.82-45.77,89.82-102.22-40.22-102.22-89.82-102.22ZM164.29,248.91c-34.71,0-62.85-36.56-62.85-81.65s28.14-81.65,62.85-81.65,62.84,36.55,62.84,81.65-28.13,81.65-62.84,81.65Z"/>
</svg>